<?xml version="1.0" encoding="UTF-8"?>
<!DOCTYPE svg PUBLIC "-//W3C//DTD SVG 1.1//EN" "http://www.w3.org/Graphics/SVG/1.1/DTD/svg11.dtd">
<!-- Creator: CorelDRAW X8 -->
<svg xmlns="http://www.w3.org/2000/svg" xml:space="preserve" width="207.302mm" height="206.541mm" version="1.1" style="shape-rendering:geometricPrecision; text-rendering:geometricPrecision; image-rendering:optimizeQuality; fill-rule:evenodd; clip-rule:evenodd"
viewBox="0 0 20730 20654"
 xmlns:xlink="http://www.w3.org/1999/xlink">
 <defs>
  <style type="text/css">
   <![CDATA[
    .fil1 {fill:#FAC9CE}
    .fil3 {fill:#F6A6AE}
    .fil4 {fill:#F16C72}
    .fil5 {fill:#F7F7F8}
    .fil0 {fill:#DE3338}
    .fil2 {fill:#5F2D33}
   ]]>
  </style>
 </defs>
 <g id="Camada_x0020_1">
  <metadata id="CorelCorpID_0Corel-Layer"/>
  <path class="fil0" d="M9748 25c-1957,160 -3421,662 -4876,1564 -1027,636 -1337,985 -2132,1760 -750,732 -1610,2190 -2001,3156 -1690,4169 -343,8741 2639,11436 1628,1472 4357,2921 7618,2688 1531,-109 2959,-515 4060,-1105 1495,-801 2565,-1675 3518,-2906 2403,-3105 2868,-7409 1038,-10958 -277,-539 -658,-1142 -1007,-1586 -1182,-1503 -2537,-2567 -4417,-3337 -1205,-493 -2921,-835 -4440,-712z"/>
  <path class="fil1" d="M9646 1212c-1894,157 -3483,786 -4954,1915 -119,91 -202,170 -314,259 -614,485 -1443,1479 -1855,2159 -284,469 -544,982 -755,1538 -448,1184 -668,2566 -561,3973 368,4838 4596,8770 9905,8387 1777,-128 3640,-883 4934,-1914 460,-367 800,-707 1180,-1114 1404,-1506 2489,-3932 2305,-6808 -306,-4766 -4646,-8830 -9885,-8395z"/>
  <path class="fil2" d="M13414 10142c75,-139 184,-249 267,-439 76,-177 119,-340 167,-533 231,-895 326,-4259 -800,-4789 -586,-276 -1039,183 -1214,578 -391,887 -369,2477 -226,3520 88,650 321,1748 1051,1871 411,69 531,-114 755,-208z"/>
  <path class="fil2" d="M6849 9084l59 143c46,177 48,237 134,436 93,217 196,334 297,487 75,17 169,116 292,161 1809,657 1817,-4086 1304,-5287 -178,-414 -556,-897 -1196,-660 -1015,375 -1017,2887 -972,3855 10,209 101,733 82,865z"/>
  <path class="fil3" d="M13848 9170c-48,193 -91,356 -167,533 -83,190 -192,300 -267,439 109,37 112,285 560,524 246,131 575,223 909,237 1892,80 2343,-1498 857,-1910 -1153,-319 -1579,132 -1892,177z"/>
  <path class="fil3" d="M7339 10150c-101,-153 -204,-270 -297,-487 -86,-199 -88,-259 -134,-436l-59 -143c13,122 4,39 -23,69 -1550,-763 -3193,263 -2599,1123 593,859 2448,818 2979,10 120,-183 57,-146 133,-136z"/>
  <path class="fil4" d="M5448 9212c-342,53 -513,91 -754,254 -664,450 14,1295 1342,1122 441,-58 1240,-402 894,-936 -238,-368 -929,-525 -1482,-440z"/>
  <path class="fil4" d="M14789 9205c-407,65 -1301,285 -1002,891 190,384 908,565 1478,497 516,-62 1269,-385 986,-905 -209,-383 -941,-568 -1462,-483z"/>
  <path class="fil5" d="M7872 4917c-786,303 -708,2668 320,2314 781,-270 708,-2710 -320,-2314z"/>
  <path class="fil5" d="M12501 4922c-778,271 -599,2681 426,2305 727,-266 619,-2668 -426,-2305z"/>
  <path class="fil2" d="M9021 11192c-168,54 -249,261 -128,421 56,74 121,72 196,136 96,82 294,518 1032,630 1051,159 1447,-582 1566,-657 84,-52 139,-49 186,-147 201,-422 -532,-588 -504,-80 10,199 -118,267 -261,371 -447,322 -1114,283 -1509,-23 -197,-153 -224,-134 -224,-396 0,-186 -164,-316 -354,-255z"/>
 </g>
</svg>
